<svg version="1.1" id="Layer_1" xmlns="http://www.w3.org/2000/svg" xmlns:xlink="http://www.w3.org/1999/xlink" x="0px" y="0px"
	 width="100%" viewBox="0 0 500 500" enable-background="new 0 0 500 500" xml:space="preserve">
<path fill="#000000" opacity="1.000000" stroke="none" fill="none" 
	d="
M344.000000,501.000000 
	C229.333359,501.000000 115.166718,501.000000 1.000061,501.000000 
	C1.000041,334.333405 1.000041,167.666794 1.000020,1.000151 
	C167.666565,1.000100 334.333130,1.000100 500.999756,1.000050 
	C500.999847,167.666519 500.999847,334.333038 500.999939,500.999786 
	C448.833344,501.000000 396.666656,501.000000 344.000000,501.000000 
M301.966400,431.521606 
	C302.777832,430.993683 303.564850,430.422913 304.404358,429.944244 
	C316.809326,422.871368 329.267700,415.890808 341.621826,408.730347 
	C366.609894,394.247253 391.448029,379.502350 416.554840,365.229187 
	C424.137146,360.918671 429.992523,356.026825 429.994263,346.601227 
	C430.005188,286.788483 430.036896,226.975693 429.945282,167.163101 
	C429.935547,160.825577 427.500824,155.350876 421.734344,151.976669 
	C414.593140,147.798050 407.357361,143.781281 400.201508,139.627304 
	C377.896515,126.679253 355.609253,113.700615 333.316406,100.731636 
	C312.419098,88.574524 291.543091,76.380630 270.616943,64.273361 
	C262.734619,59.712887 254.613037,58.044632 246.158157,62.970337 
	C225.548477,74.977287 204.953217,87.009453 184.297745,98.937286 
	C155.357422,115.649323 126.452843,132.426926 97.339417,148.832993 
	C90.044800,152.943680 84.079117,157.607422 84.061745,166.523270 
	C83.944206,226.835602 83.942070,287.148438 84.084381,347.460663 
	C84.099777,353.987457 87.163651,359.297211 93.172455,362.659912 
	C104.634377,369.074463 116.062439,375.552185 127.426712,382.138031 
	C152.557129,396.701508 177.637222,411.351776 202.741928,425.959625 
	C217.045105,434.282349 231.305939,442.679688 245.685638,450.868195 
	C252.619812,454.816833 259.933350,455.374115 267.086639,451.395996 
	C278.562286,445.013977 289.929993,438.437897 301.966400,431.521606 
z"/>
<path fill="#A57AE6" opacity="1.000000" stroke="none" 
	d="
M301.654877,431.732727 
	C289.929993,438.437897 278.562286,445.013977 267.086639,451.395996 
	C259.933350,455.374115 252.619812,454.816833 245.685638,450.868195 
	C231.305939,442.679688 217.045105,434.282349 202.741928,425.959625 
	C177.637222,411.351776 152.557129,396.701508 127.426712,382.138031 
	C116.062439,375.552185 104.634377,369.074463 93.172455,362.659912 
	C87.163651,359.297211 84.099777,353.987457 84.084381,347.460663 
	C83.942070,287.148438 83.944206,226.835602 84.061745,166.523270 
	C84.079117,157.607422 90.044800,152.943680 97.339417,148.832993 
	C126.452843,132.426926 155.357422,115.649323 184.297745,98.937286 
	C204.953217,87.009453 225.548477,74.977287 246.158157,62.970337 
	C254.613037,58.044632 262.734619,59.712887 270.616943,64.273361 
	C291.543091,76.380630 312.419098,88.574524 333.316406,100.731636 
	C355.609253,113.700615 377.896515,126.679253 400.201508,139.627304 
	C407.357361,143.781281 414.593140,147.798050 421.734344,151.976669 
	C427.500824,155.350876 429.935547,160.825577 429.945282,167.163101 
	C430.036896,226.975693 430.005188,286.788483 429.994263,346.601227 
	C429.992523,356.026825 424.137146,360.918671 416.554840,365.229187 
	C391.448029,379.502350 366.609894,394.247253 341.621826,408.730347 
	C329.267700,415.890808 316.809326,422.871368 304.404358,429.944244 
	C303.564850,430.422913 302.777832,430.993683 301.654877,431.732727 
M151.162949,186.961899 
	C151.162949,233.194458 151.162949,279.427032 151.162949,325.751434 
	C156.405914,325.751434 160.689560,325.751434 164.943207,325.751434 
	C164.943207,289.208130 164.943207,252.920059 164.943207,216.252060 
	C165.665344,216.931686 166.404617,217.491043 166.977631,218.187225 
	C175.325943,228.330170 183.547516,238.579346 192.003983,248.630997 
	C213.129730,273.741760 234.348846,298.774078 255.576263,323.799011 
	C256.790253,325.230194 258.413879,326.313873 260.738434,328.334076 
	C260.738434,279.624573 260.738434,232.569122 260.738434,185.317520 
	C256.115143,185.317520 251.877792,185.317520 247.078079,185.317520 
	C247.078079,203.747131 247.078079,221.862839 247.078079,239.978546 
	C247.078079,257.951538 247.078079,275.924500 247.078079,294.099243 
	C245.878128,292.522003 244.754364,290.908997 243.495087,289.409851 
	C219.497192,260.840790 195.483932,232.284637 171.472366,203.727066 
	C166.225159,197.486404 161.017303,191.211731 155.698318,185.032791 
	C153.733307,182.750076 151.608353,181.155304 151.162949,186.961899 
M379.307373,291.229736 
	C379.214966,289.793579 379.028931,288.356354 379.044739,286.921387 
	C379.199188,272.893250 372.341461,262.801453 360.686340,256.049957 
	C350.631744,250.225647 339.964325,245.469055 329.762268,239.885162 
	C324.845367,237.193985 319.690857,234.354965 315.838318,230.414993 
	C306.040894,220.395096 309.303589,203.597000 321.811646,198.393814 
	C332.283661,194.037598 347.629791,196.123611 355.335297,206.030472 
	C356.646912,207.716827 358.003967,209.367874 359.552551,211.300461 
	C363.557861,208.819122 367.316071,206.490875 371.444366,203.933365 
	C370.085388,201.991623 369.101562,200.490494 368.023468,199.060425 
	C358.657166,186.636215 345.626129,182.806686 330.764801,182.961075 
	C315.471375,183.119965 300.832031,192.363632 297.285217,205.821365 
	C293.180817,221.394943 295.987915,236.217407 310.685669,245.831375 
	C320.378754,252.171692 331.287048,256.629059 341.480896,262.238953 
	C346.989594,265.270477 352.418671,268.592316 357.382568,272.431152 
	C363.564850,277.212280 365.182953,284.504120 364.379272,291.677979 
	C362.756287,306.164856 348.167969,316.825623 333.651062,314.945221 
	C319.825470,313.154388 308.181091,307.818665 300.781860,295.207031 
	C300.172272,294.168030 297.597443,293.285980 296.485474,293.724640 
	C293.156219,295.038055 290.099945,297.043518 286.555084,298.988403 
	C288.015991,301.435974 289.075867,303.484192 290.383270,305.359863 
	C303.192047,323.735992 325.353699,331.695892 348.392517,326.246582 
	C368.706146,321.441895 378.700043,310.318359 379.307373,291.229736 
z"/>
<path fill="#FEFEFF" opacity="1.000000" stroke="none" 
	d="
M151.166931,186.524338 
	C151.608353,181.155304 153.733307,182.750076 155.698318,185.032791 
	C161.017303,191.211731 166.225159,197.486404 171.472366,203.727066 
	C195.483932,232.284637 219.497192,260.840790 243.495087,289.409851 
	C244.754364,290.908997 245.878128,292.522003 247.078079,294.099243 
	C247.078079,275.924500 247.078079,257.951538 247.078079,239.978546 
	C247.078079,221.862839 247.078079,203.747131 247.078079,185.317520 
	C251.877792,185.317520 256.115143,185.317520 260.738434,185.317520 
	C260.738434,232.569122 260.738434,279.624573 260.738434,328.334076 
	C258.413879,326.313873 256.790253,325.230194 255.576263,323.799011 
	C234.348846,298.774078 213.129730,273.741760 192.003983,248.630997 
	C183.547516,238.579346 175.325943,228.330170 166.977631,218.187225 
	C166.404617,217.491043 165.665344,216.931686 164.943207,216.252060 
	C164.943207,252.920059 164.943207,289.208130 164.943207,325.751434 
	C160.689560,325.751434 156.405914,325.751434 151.162949,325.751434 
	C151.162949,279.427032 151.162949,233.194458 151.166931,186.524338 
z"/>
<path fill="#FEFDFF" opacity="1.000000" stroke="none" 
	d="
M379.202240,291.650604 
	C378.700043,310.318359 368.706146,321.441895 348.392517,326.246582 
	C325.353699,331.695892 303.192047,323.735992 290.383270,305.359863 
	C289.075867,303.484192 288.015991,301.435974 286.555084,298.988403 
	C290.099945,297.043518 293.156219,295.038055 296.485474,293.724640 
	C297.597443,293.285980 300.172272,294.168030 300.781860,295.207031 
	C308.181091,307.818665 319.825470,313.154388 333.651062,314.945221 
	C348.167969,316.825623 362.756287,306.164856 364.379272,291.677979 
	C365.182953,284.504120 363.564850,277.212280 357.382568,272.431152 
	C352.418671,268.592316 346.989594,265.270477 341.480896,262.238953 
	C331.287048,256.629059 320.378754,252.171692 310.685669,245.831375 
	C295.987915,236.217407 293.180817,221.394943 297.285217,205.821365 
	C300.832031,192.363632 315.471375,183.119965 330.764801,182.961075 
	C345.626129,182.806686 358.657166,186.636215 368.023468,199.060425 
	C369.101562,200.490494 370.085388,201.991623 371.444366,203.933365 
	C367.316071,206.490875 363.557861,208.819122 359.552551,211.300461 
	C358.003967,209.367874 356.646912,207.716827 355.335297,206.030472 
	C347.629791,196.123611 332.283661,194.037598 321.811646,198.393814 
	C309.303589,203.597000 306.040894,220.395096 315.838318,230.414993 
	C319.690857,234.354965 324.845367,237.193985 329.762268,239.885162 
	C339.964325,245.469055 350.631744,250.225647 360.686340,256.049957 
	C372.341461,262.801453 379.199188,272.893250 379.044739,286.921387 
	C379.028931,288.356354 379.214966,289.793579 379.202240,291.650604 
z"/>
</svg>
