<?xml version="1.0" standalone="no"?>
<!DOCTYPE svg PUBLIC "-//W3C//DTD SVG 20010904//EN"
 "http://www.w3.org/TR/2001/REC-SVG-20010904/DTD/svg10.dtd">
<svg version="1.0" xmlns="http://www.w3.org/2000/svg"
 width="500.000000pt" height="500.000000pt" viewBox="0 0 500.000000 500.000000"
 preserveAspectRatio="xMidYMid meet">

<g transform="translate(0.000000,500.000000) scale(0.100000,-0.100000)"
fill="#000000" stroke="none">
<path d="M2364 4096 c-88 -39 -1134 -654 -1166 -684 -77 -73 -73 -29 -76 -765
-2 -429 1 -678 8 -715 18 -98 44 -123 256 -245 230 -131 288 -152 418 -145
101 6 168 31 218 85 32 33 78 129 78 161 0 13 3 22 8 20 4 -2 31 -16 59 -31
82 -42 154 -57 284 -57 147 0 206 11 297 56 132 64 238 200 263 337 6 37 9
260 7 630 l-3 572 -38 76 c-63 126 -169 221 -297 265 -46 16 -84 19 -225 19
-194 0 -235 -10 -342 -83 -68 -46 -109 -90 -150 -159 -59 -100 -56 -69 -64
-738 -4 -341 -7 -629 -6 -640 6 -85 -3 -205 -17 -233 -20 -38 -69 -56 -156
-57 -64 0 -67 1 -225 94 -88 51 -163 98 -167 105 -4 6 -8 300 -8 653 l0 643
38 24 c80 52 1081 626 1092 626 6 0 144 -77 308 -172 681 -393 798 -461 810
-470 9 -8 12 -151 12 -652 0 -352 -4 -646 -8 -652 -8 -13 -1109 -654 -1122
-654 -5 0 -77 41 -160 91 l-151 91 -57 -30 c-31 -16 -74 -35 -94 -42 -45 -14
-55 -27 -37 -46 26 -25 403 -244 438 -254 49 -14 90 -12 142 4 24 7 294 158
599 335 581 337 618 362 640 440 15 54 14 1372 -2 1423 -23 79 -57 101 -657
449 l-575 332 -70 4 c-47 2 -82 -1 -102 -11z m321 -540 c70 -35 165 -121 195
-178 48 -93 50 -118 50 -678 0 -559 -2 -586 -49 -677 -33 -61 -118 -138 -196
-175 l-70 -33 -160 0 -160 0 -67 34 c-83 42 -168 128 -206 208 l-27 58 0 585
0 585 31 65 c48 102 136 180 249 222 42 15 74 18 200 15 142 -2 153 -4 210
-31z"/>
<path d="M2390 3406 c-164 -41 -247 -193 -194 -350 49 -143 234 -216 380 -151
68 30 107 69 140 138 44 95 27 197 -46 281 -38 43 -75 64 -145 82 -58 16 -74
16 -135 0z m157 -101 c17 -7 46 -32 62 -56 39 -54 43 -134 10 -189 -48 -79
-148 -110 -234 -74 -47 19 -67 39 -94 89 -25 47 -27 95 -6 140 47 97 155 134
262 90z"/>
<path d="M2365 2508 c-114 -41 -186 -141 -184 -257 1 -71 15 -109 61 -164 66
-79 177 -119 271 -97 72 18 118 43 156 86 68 77 90 191 54 271 -53 115 -143
173 -268 172 -33 0 -73 -5 -90 -11z m166 -93 c75 -33 109 -85 109 -166 0 -46
-5 -63 -29 -96 -35 -49 -89 -75 -151 -75 -62 0 -113 25 -153 75 -27 35 -32 49
-32 97 0 130 136 218 256 165z"/>
</g>
</svg>
